<?xml version="1.0" encoding="UTF-8" standalone="no"?>
<!DOCTYPE svg PUBLIC "-//W3C//DTD SVG 1.1//EN" "http://www.w3.org/Graphics/SVG/1.1/DTD/svg11.dtd">

<!-- Created with Vectornator (http://vectornator.io/) -->
<svg height="100%" stroke-miterlimit="10" style="fill-rule:nonzero;clip-rule:evenodd;stroke-linecap:round;stroke-linejoin:round;" version="1.1" viewBox="0 0 5000 1080" width="100%" xml:space="preserve" xmlns="http://www.w3.org/2000/svg" xmlns:vectornator="http://vectornator.io" xmlns:xlink="http://www.w3.org/1999/xlink">
<metadata>
<vectornator:setting key="IsTimeLapseWatermarkDisabled" value="false"/>
<vectornator:setting key="UndoHistoryDisabled" value="true"/>
<vectornator:setting key="VNDimensionsVisible" value="true"/>
<vectornator:setting key="VNSnapToGuides" value="true"/>
<vectornator:setting key="WDCMYKEnabledKey" value="false"/>
<vectornator:setting key="WDDisplayWhiteBackground" value="false"/>
<vectornator:setting key="WDDynamicGuides" value="false"/>
<vectornator:setting key="WDGuidesVisible" value="true"/>
<vectornator:setting key="WDIsolateActiveLayer" value="false"/>
<vectornator:setting key="WDOutlineMode" value="false"/>
<vectornator:setting key="WDRulersVisible" value="true"/>
<vectornator:setting key="WDSnapToEdges" value="false"/>
<vectornator:setting key="WDSnapToGrid" value="false"/>
<vectornator:setting key="WDSnapToPoints" value="false"/>
<vectornator:setting key="WDUnits" value="Points"/>
</metadata>
<defs/>
<clipPath id="ArtboardFrame">
<rect height="1080" width="5000" x="0" y="0"/>
</clipPath>
<g clip-path="url(#ArtboardFrame)" id="Layer-3" vectornator:layerName="Layer 3">
<path d="M-80.7161 762.298C-132.572 658.587 272.879 342.222 494.688 345.626C723.247 349.134 866.718 715.132 1060.27 761.081C1182.56 790.112 1308.65 428.84 1629.35 417.044C1870.68 408.168 1995.55 791.091 2217.69 770.897C2389.3 755.296 2555.26 460.607 2759.13 442.073C3035.64 416.936 3278.08 819.324 3571.08 760.724C3797.67 715.407 3697.11 436.259 3992.89 396.405C4248.86 361.913 4261.42 667.885 4490.53 696.524C4633.69 714.419 4688.14 540 4927.44 443.235C5225.73 322.615 5244.88 696.459 5242.77 824.965C5240.54 961.084 5216.04 1265.59 5107.85 1274.5C4978.41 1285.15 2133.29 1233.53 1114.74 1233.53C837.356 1233.53 559.372 1243.46 281.392 1243.46C234.987 1243.46-95.5972 1209.26-95.5972 1218.65" fill="#9da373" fill-rule="evenodd" opacity="1" stroke="none"/>
</g>
</svg>
