<?xml version="1.0" encoding="UTF-8" standalone="no"?>
<!DOCTYPE svg PUBLIC "-//W3C//DTD SVG 1.1//EN" "http://www.w3.org/Graphics/SVG/1.1/DTD/svg11.dtd">

<!-- Created with Vectornator (http://vectornator.io/) -->
<svg height="100%" stroke-miterlimit="10" style="fill-rule:nonzero;clip-rule:evenodd;stroke-linecap:round;stroke-linejoin:round;" version="1.1" viewBox="0 0 5000 1080" width="100%" xml:space="preserve" xmlns="http://www.w3.org/2000/svg" xmlns:vectornator="http://vectornator.io" xmlns:xlink="http://www.w3.org/1999/xlink">
<metadata>
<vectornator:setting key="IsTimeLapseWatermarkDisabled" value="false"/>
<vectornator:setting key="UndoHistoryDisabled" value="true"/>
<vectornator:setting key="VNDimensionsVisible" value="true"/>
<vectornator:setting key="VNSnapToGuides" value="true"/>
<vectornator:setting key="WDCMYKEnabledKey" value="false"/>
<vectornator:setting key="WDDisplayWhiteBackground" value="false"/>
<vectornator:setting key="WDDynamicGuides" value="false"/>
<vectornator:setting key="WDGuidesVisible" value="true"/>
<vectornator:setting key="WDIsolateActiveLayer" value="false"/>
<vectornator:setting key="WDOutlineMode" value="false"/>
<vectornator:setting key="WDRulersVisible" value="true"/>
<vectornator:setting key="WDSnapToEdges" value="false"/>
<vectornator:setting key="WDSnapToGrid" value="false"/>
<vectornator:setting key="WDSnapToPoints" value="false"/>
<vectornator:setting key="WDUnits" value="Pixels"/>
</metadata>
<defs/>
<clipPath id="ArtboardFrame">
<rect height="1080" width="5000" x="0" y="0"/>
</clipPath>
<g clip-path="url(#ArtboardFrame)" id="Layer-5" vectornator:layerName="Layer 5" visibility="hidden">
<path d="M-59.4141-13.2839C-59.4141-69.6056-65.759 244.096-72.813 321.69C-94.0919 555.757-31.3498 834.718-86.212 1054.17" fill="#86b3d3" fill-rule="evenodd" opacity="1" stroke="none"/>
<path d="M0 0L0 477.969L0 1080L5000 1080L5000 0" fill="#86b3d3" fill-rule="evenodd" opacity="1" stroke="none"/>
</g>
<g clip-path="url(#ArtboardFrame)" id="Layer-3" vectornator:layerName="Layer 3" visibility="hidden">
<path d="M-80.7161 762.298C-132.572 658.587 272.879 342.222 494.688 345.626C723.247 349.134 866.718 715.132 1060.27 761.081C1182.56 790.112 1308.65 428.84 1629.35 417.044C1870.68 408.168 1995.55 791.091 2217.69 770.897C2389.3 755.296 2555.26 460.607 2759.13 442.073C3035.64 416.936 3278.08 819.324 3571.08 760.724C3797.67 715.407 3697.11 436.259 3992.89 396.405C4248.86 361.913 4261.42 667.885 4490.53 696.524C4633.69 714.419 4688.14 540 4927.44 443.235C5225.73 322.615 5244.88 696.459 5242.77 824.965C5240.54 961.084 5216.04 1265.59 5107.85 1274.5C4978.41 1285.15 2133.29 1233.53 1114.74 1233.53C837.356 1233.53 559.372 1243.46 281.392 1243.46C234.987 1243.46-95.5972 1209.26-95.5972 1218.65" fill="#9da373" fill-rule="evenodd" opacity="1" stroke="none"/>
</g>
<g clip-path="url(#ArtboardFrame)" id="Layer-1" vectornator:layerName="Layer 1" visibility="hidden">
<path d="M-87.8698 671.869C-115.541 685.704-76.5067 516.804-67.2994 466.165C-65.5294 456.429-68.2482 419.504-60.4426 427.309" fill="#6a7a11" fill-rule="evenodd" opacity="1" stroke="none"/>
<path d="M-33.7935 641.479C97.06 510.626 230.969 732.333 351.755 747.431C509.11 767.101 519.368 540 754.962 523.754C951.959 510.17 1061.4 752.906 1270.01 726.83C1357.69 715.87 1362.83 640.532 1511.34 603.219C1655.12 567.095 1725.79 770.669 1838.03 738.602C1982.63 697.288 2096.85 500.579 2271.45 500.579C2404.16 500.579 2500.19 833.948 2671.59 825.519C2809.26 818.748 2858.93 615.845 2955.96 593.06C3124.95 553.376 3200.36 837.676 3348.66 816.491C3530.66 790.49 3572.71 454.636 3771.66 491.38C4034.91 540 3971.49 708.483 4136.61 726.83C4290.77 743.959 4320.53 561.098 4454.46 544.356C4596.85 526.557 4681.07 736.249 4801.75 712.114C4879.05 696.655 4971.99 521.709 5063.69 576.731C5150.65 628.91 5226.32 1083.89 5169.64 1159.47C5136.49 1203.67 4814.16 1174.18 4754.66 1174.18C4357.06 1174.18 3953.54 1170.09 3556.81 1185.96C3120.87 1203.39 2668.34 1197.75 2232.41 1174.18C1467.67 1132.85 653.059 1159.47-92.6558 1159.47" fill="#6a7a11" fill-rule="evenodd" opacity="1" stroke="none"/>
</g>
<g clip-path="url(#ArtboardFrame)" id="Layer-2" vectornator:layerName="Layer 2" visibility="hidden">
<path d="M-104.425 798.3C300.805 393.069 405.424 900.185 681.398 854.189C852.189 825.724 863.697 581.613 1084.95 629.025C1267.43 668.126 1225.12 891.148 1432.36 873.878C1538.2 865.058 1577.78 745.171 1690.78 722.572C1877.53 685.221 1922.38 909.535 2053.95 896.378C2152.5 886.523 2215.12 748.631 2344.34 696.524C2457.21 651.013 2652.38 853.386 2772.11 851.127C2867.09 849.335 2939.5 707.552 3104.91 696.524C3327.52 681.684 3408.95 876.997 3547.26 861.629C3669.13 848.088 3723.3 698.637 3890.23 684.726C4073.21 669.478 4234.2 824.212 4365.21 809.655C4550.09 789.114 4617.32 635.871 4853.55 700.299C4945.82 725.462 5080.1 791.843 5101.54 879.192C5106.31 898.628 5158.16 1061.41 5073.27 1117.81C4957.63 1194.63 4686.38 1166.42 4604.09 1163.58C4200.61 1149.66 3796.14 1163.58 3392.44 1163.58C2974.97 1163.58 2557.95 1176.94 2140.7 1176.94C1400.46 1176.94 651.64 1154.67-82.1523 1154.67" fill="#4f5c12" fill-rule="evenodd" opacity="1" stroke="none"/>
</g>
<g id="Layer-4" vectornator:layerName="Layer 4">
<path d="M333.003 371.57C333.003 371.57 341.224 324.689 300.403 305.159C264.797 288.123 219.3 329.23 219.3 329.23C219.3 329.23 186.216 285.404 146.038 302.26C104.253 319.791 106.717 374.085 106.717 374.085C106.717 374.085 17.3428 383.987 61.177 458.769C85.1858 499.728 360.323 502.281 381.02 441.226C400.918 382.527 333.593 371.14 333.593 371.14" fill="#ffffff" fill-rule="evenodd" opacity="1" stroke="none"/>
<path d="M493.362 265.969C493.362 265.969 458.232 241.464 434.574 275.368C407.744 313.819 449.613 330.396 449.613 330.396C449.613 330.396 608.253 340.741 617.466 304.885C626.218 270.823 582.447 267.833 582.447 267.833C582.447 267.833 582.874 241.135 551.355 233.849C504.104 222.928 493.362 265.969 493.362 265.969Z" fill="#ffffff" fill-rule="evenodd" opacity="1" stroke="none"/>
<path d="M620.878 463.332C583.329 370.635 689.895 383.158 689.895 383.158C689.895 383.158 672.977 348.185 701.049 322.419C726.651 298.919 769.893 319.732 769.893 319.732C769.893 319.732 785.542 266.721 858.86 266.655C922.237 266.599 929.463 331.402 930.642 331.186C1099.19 300.219 1074.56 456.652 1056.78 471.6C1028.32 495.534 628.906 483.152 620.878 463.332Z" fill="#ffffff" fill-rule="evenodd" opacity="1" stroke="none"/>
<path d="M1095.25 312.06C1034.62 309.804 1050.42 224.077 1115.28 246.355C1116.12 246.645 1116.97 213.079 1153.35 209.695C1183.5 206.891 1196.21 233.665 1196.21 233.665C1196.21 233.665 1233.15 228.307 1248.94 250.585C1263.09 270.539 1249.79 303.036 1223.28 307.83" fill="#ffffff" fill-rule="evenodd" opacity="1" stroke="none"/>
<path d="M1401.42 386.48C1383.31 386.538 1335.26 356.857 1353.79 304.845C1376.35 241.552 1443.48 281.515 1443.48 281.515C1443.48 281.515 1455.95 222.345 1507.66 211.969C1559.38 201.594 1581.05 227.866 1593.06 260.144C1593.79 262.102 1619.55 235.886 1663.99 248.097C1707.47 260.047 1712.12 295.564 1712.12 295.564C1712.12 295.564 1777.84 285.938 1780.83 336.724C1782.67 368.047 1759.77 381.295 1750.62 384.19" fill="#ffffff" fill-rule="evenodd" opacity="1" stroke="none"/>
<path d="M1963.58 306.288C1929.51 306.288 1925.15 276.623 1928.79 264.642C1938.9 231.386 1982.91 247.5 1982.91 247.5C1982.91 247.5 1997.55 199.747 2041.86 205.644C2075.42 210.111 2083.02 243.663 2083.02 243.663C2083.02 243.663 2120.21 227.363 2137.78 254.476C2152.19 276.718 2137.39 302.233 2114.38 308.351" fill="#ffffff" fill-rule="evenodd" opacity="1" stroke="none"/>
<path d="M1979.5 526.152C1942.76 516.967 1922.26 493.909 1937.72 457.277C1952.65 421.881 2004.59 435.468 2004.59 435.468C2004.59 435.468 2003.67 404.209 2029.94 390.17C2068.68 369.463 2089.87 398.311 2089.87 398.311C2089.87 398.311 2113.98 350.732 2161.65 368.128C2225.45 391.409 2201.44 448.63 2201.44 448.63C2201.44 448.63 2241.8 452.449 2249.71 476.178C2257.62 499.908 2244.53 525.819 2207.15 528.857" fill="#ffffff" fill-rule="evenodd" opacity="1" stroke="none"/>
<path d="M2374.13 421.511C2325.61 430.237 2293.63 381.042 2315.98 335.076C2336.16 293.58 2385.35 309.327 2385.35 309.327C2385.35 309.327 2376.22 254.439 2418.39 233.4C2471.04 207.136 2500 251.371 2500 251.371C2500 251.371 2527.15 185.726 2597.33 225.075C2646.37 252.564 2620.91 304.304 2620.91 304.304C2620.91 304.304 2669.15 297.896 2691.22 345.562C2703.63 372.373 2677.13 413.519 2641.01 416.869" fill="#ffffff" fill-rule="evenodd" opacity="1" stroke="none"/>
<path d="M2769.02 288.667C2737.22 286.067 2721.96 248.635 2745.28 224.647C2774.27 194.826 2810.11 226.198 2810.11 226.198C2810.11 226.198 2816.96 185.967 2852.86 187.766C2890.22 189.639 2900.32 223.502 2900.32 223.502C2900.32 223.502 2931.31 224.619 2938.85 246.116C2945.63 265.454 2932.66 293.02 2904.32 289.838" fill="#ffffff" fill-rule="evenodd" opacity="1" stroke="none"/>
<path d="M2950.26 438.584C2905.44 431.044 2911.72 364.855 2941.47 345.585C2968.89 327.817 3006.01 339.849 3006.01 339.849C3006.01 339.849 2997.02 291.388 3025 273.403C3051.11 256.618 3087.45 273.902 3087.45 273.902C3087.45 273.902 3115.92 210.453 3184.87 221.944C3250.53 232.888 3249.77 289.229 3249.77 289.229C3249.77 289.229 3320.83 247.201 3379.71 308.874C3426.31 357.682 3392.08 435.771 3340.74 435.771" fill="#ffffff" fill-rule="evenodd" opacity="1" stroke="none"/>
<path d="M3432.55 301.722C3401.67 301.722 3382.6 262.207 3403.25 239.134C3425.03 214.793 3455.02 236.289 3455.02 236.289C3455.02 236.289 3465.31 200.657 3495.99 199.59C3528.71 198.452 3533.54 234.298 3533.54 234.298C3533.54 234.298 3575.85 221.351 3589.06 254.262C3602.24 287.091 3566.48 304.229 3549.91 304.229" fill="#ffffff" fill-rule="evenodd" opacity="1" stroke="none"/>
<path d="M3729.12 390.456C3676.31 365.433 3672.83 311.553 3712.85 283.107C3749.63 256.967 3785.19 288.882 3785.19 288.882C3785.19 288.882 3794.59 233.891 3852.99 220.108C3907.71 207.198 3930.92 260.78 3930.92 260.78C3930.92 260.78 3961.69 239.775 4003.79 247.837C4045.9 255.899 4052.17 296.656 4052.17 296.656C4052.17 296.656 4104.54 292.993 4116.15 327.017C4129.01 364.73 4108.24 399.448 4065.93 398.075" fill="#ffffff" fill-rule="evenodd" opacity="1" stroke="none"/>
<path d="M2769.02 288.667C2737.22 286.067 2721.96 248.635 2745.28 224.647C2774.27 194.826 2810.11 226.198 2810.11 226.198C2810.11 226.198 2816.96 185.967 2852.86 187.766C2890.22 189.639 2900.32 223.502 2900.32 223.502C2900.32 223.502 2931.31 224.619 2938.85 246.116C2945.63 265.454 2932.66 293.02 2904.32 289.838" fill="#ffffff" fill-rule="evenodd" opacity="1" stroke="none"/>
<path d="M2769.02 288.667C2737.22 286.067 2721.96 248.635 2745.28 224.647C2774.27 194.826 2810.11 226.198 2810.11 226.198C2810.11 226.198 2816.96 185.967 2852.86 187.766C2890.22 189.639 2900.32 223.502 2900.32 223.502C2900.32 223.502 2931.31 224.619 2938.85 246.116C2945.63 265.454 2932.66 293.02 2904.32 289.838" fill="#ffffff" fill-rule="evenodd" opacity="1" stroke="none"/>
<path d="M4299.34 309.146C4267.54 306.546 4252.28 269.114 4275.6 245.126C4304.59 215.305 4340.43 246.677 4340.43 246.677C4340.43 246.677 4347.28 206.446 4383.18 208.245C4420.54 210.117 4430.64 243.981 4430.64 243.981C4430.64 243.981 4461.63 245.098 4469.17 266.595C4475.95 285.933 4462.98 313.499 4434.64 310.317" fill="#ffffff" fill-rule="evenodd" opacity="1" stroke="none"/>
<path d="M4320.73 537.296C4283.99 528.111 4263.49 505.052 4278.95 468.42C4293.88 433.024 4345.82 446.612 4345.82 446.612C4345.82 446.612 4344.9 415.352 4371.17 401.313C4409.91 380.606 4431.1 409.455 4431.1 409.455C4431.1 409.455 4455.21 361.875 4502.88 379.271C4566.68 402.553 4542.66 459.774 4542.66 459.774C4542.66 459.774 4583.03 463.592 4590.94 487.322C4598.85 511.051 4585.76 536.962 4548.37 540" fill="#ffffff" fill-rule="evenodd" opacity="1" stroke="none"/>
<path d="M4661.43 397.802C4612.9 406.528 4566.76 361.878 4593.55 308.272C4617.81 259.709 4672.64 285.618 4672.64 285.618C4672.64 285.618 4663.51 230.731 4705.69 209.692C4758.34 183.427 4787.29 232.789 4787.29 232.789C4787.29 232.789 4814.44 162.018 4884.63 201.366C4933.66 228.856 4904.43 287.129 4904.43 287.129C4904.43 287.129 4949.37 282.481 4969.68 319.662C4983.84 345.592 4964.42 389.811 4928.3 393.161" fill="#ffffff" fill-rule="evenodd" opacity="1" stroke="none"/>
</g>
</svg>
