<?xml version="1.0" encoding="UTF-8" standalone="no"?>
<!DOCTYPE svg PUBLIC "-//W3C//DTD SVG 1.1//EN" "http://www.w3.org/Graphics/SVG/1.1/DTD/svg11.dtd">

<!-- Created with Vectornator (http://vectornator.io/) -->
<svg height="100%" stroke-miterlimit="10" style="fill-rule:nonzero;clip-rule:evenodd;stroke-linecap:round;stroke-linejoin:round;" version="1.1" viewBox="0 0 5000 1080" width="100%" xml:space="preserve" xmlns="http://www.w3.org/2000/svg" xmlns:vectornator="http://vectornator.io" xmlns:xlink="http://www.w3.org/1999/xlink">
<metadata>
<vectornator:setting key="IsTimeLapseWatermarkDisabled" value="false"/>
<vectornator:setting key="UndoHistoryDisabled" value="true"/>
<vectornator:setting key="VNDimensionsVisible" value="true"/>
<vectornator:setting key="VNSnapToGuides" value="true"/>
<vectornator:setting key="WDCMYKEnabledKey" value="false"/>
<vectornator:setting key="WDDisplayWhiteBackground" value="false"/>
<vectornator:setting key="WDDynamicGuides" value="false"/>
<vectornator:setting key="WDGuidesVisible" value="true"/>
<vectornator:setting key="WDIsolateActiveLayer" value="false"/>
<vectornator:setting key="WDOutlineMode" value="false"/>
<vectornator:setting key="WDRulersVisible" value="true"/>
<vectornator:setting key="WDSnapToEdges" value="false"/>
<vectornator:setting key="WDSnapToGrid" value="false"/>
<vectornator:setting key="WDSnapToPoints" value="false"/>
<vectornator:setting key="WDUnits" value="Points"/>
</metadata>
<defs/>
<g id="Layer-4" vectornator:layerName="Layer 4">
<path d="M333.003 371.57C333.003 371.57 341.224 324.689 300.403 305.159C264.797 288.123 219.3 329.23 219.3 329.23C219.3 329.23 186.216 285.404 146.038 302.26C104.253 319.791 106.717 374.085 106.717 374.085C106.717 374.085 17.3428 383.987 61.177 458.769C85.1858 499.728 360.323 502.281 381.02 441.226C400.918 382.527 333.593 371.14 333.593 371.14" fill="#ffffff" fill-rule="evenodd" opacity="1" stroke="none"/>
<path d="M493.362 265.969C493.362 265.969 458.232 241.464 434.574 275.368C407.744 313.819 449.613 330.396 449.613 330.396C449.613 330.396 608.253 340.741 617.466 304.885C626.218 270.823 582.447 267.833 582.447 267.833C582.447 267.833 582.874 241.135 551.355 233.849C504.104 222.928 493.362 265.969 493.362 265.969Z" fill="#ffffff" fill-rule="evenodd" opacity="1" stroke="none"/>
<path d="M620.878 463.332C583.329 370.635 689.895 383.158 689.895 383.158C689.895 383.158 672.977 348.185 701.049 322.419C726.651 298.919 769.893 319.732 769.893 319.732C769.893 319.732 785.542 266.721 858.86 266.655C922.237 266.599 929.463 331.402 930.642 331.186C1099.19 300.219 1074.56 456.652 1056.78 471.6C1028.32 495.534 628.906 483.152 620.878 463.332Z" fill="#ffffff" fill-rule="evenodd" opacity="1" stroke="none"/>
<path d="M1095.25 312.06C1034.62 309.804 1050.42 224.077 1115.28 246.355C1116.12 246.645 1116.97 213.079 1153.35 209.695C1183.5 206.891 1196.21 233.665 1196.21 233.665C1196.21 233.665 1233.15 228.307 1248.94 250.585C1263.09 270.539 1249.79 303.036 1223.28 307.83" fill="#ffffff" fill-rule="evenodd" opacity="1" stroke="none"/>
<path d="M1401.42 386.48C1383.31 386.538 1335.26 356.857 1353.79 304.845C1376.35 241.552 1443.48 281.515 1443.48 281.515C1443.48 281.515 1455.95 222.345 1507.66 211.969C1559.38 201.594 1581.05 227.866 1593.06 260.144C1593.79 262.102 1619.55 235.886 1663.99 248.097C1707.47 260.047 1712.12 295.564 1712.12 295.564C1712.12 295.564 1777.84 285.938 1780.83 336.724C1782.67 368.047 1759.77 381.295 1750.62 384.19" fill="#ffffff" fill-rule="evenodd" opacity="1" stroke="none"/>
<path d="M1963.58 306.288C1929.51 306.288 1925.15 276.623 1928.79 264.642C1938.9 231.386 1982.91 247.5 1982.91 247.5C1982.91 247.5 1997.55 199.747 2041.86 205.644C2075.42 210.111 2083.02 243.663 2083.02 243.663C2083.02 243.663 2120.21 227.363 2137.78 254.476C2152.19 276.718 2137.39 302.233 2114.38 308.351" fill="#ffffff" fill-rule="evenodd" opacity="1" stroke="none"/>
<path d="M1979.5 526.152C1942.76 516.967 1922.26 493.909 1937.72 457.277C1952.65 421.881 2004.59 435.468 2004.59 435.468C2004.59 435.468 2003.67 404.209 2029.94 390.17C2068.68 369.463 2089.87 398.311 2089.87 398.311C2089.87 398.311 2113.98 350.732 2161.65 368.128C2225.45 391.409 2201.44 448.63 2201.44 448.63C2201.44 448.63 2241.8 452.449 2249.71 476.178C2257.62 499.908 2244.53 525.819 2207.15 528.857" fill="#ffffff" fill-rule="evenodd" opacity="1" stroke="none"/>
<path d="M2374.13 421.511C2325.61 430.237 2293.63 381.042 2315.98 335.076C2336.16 293.58 2385.35 309.327 2385.35 309.327C2385.35 309.327 2376.22 254.439 2418.39 233.4C2471.04 207.136 2500 251.371 2500 251.371C2500 251.371 2527.15 185.726 2597.33 225.075C2646.37 252.564 2620.91 304.304 2620.91 304.304C2620.91 304.304 2669.15 297.896 2691.22 345.562C2703.63 372.373 2677.13 413.519 2641.01 416.869" fill="#ffffff" fill-rule="evenodd" opacity="1" stroke="none"/>
<path d="M2769.02 288.667C2737.22 286.067 2721.96 248.635 2745.28 224.647C2774.27 194.826 2810.11 226.198 2810.11 226.198C2810.11 226.198 2816.96 185.967 2852.86 187.766C2890.22 189.639 2900.32 223.502 2900.32 223.502C2900.32 223.502 2931.31 224.619 2938.85 246.116C2945.63 265.454 2932.66 293.02 2904.32 289.838" fill="#ffffff" fill-rule="evenodd" opacity="1" stroke="none"/>
<path d="M2950.26 438.584C2905.44 431.044 2911.72 364.855 2941.47 345.585C2968.89 327.817 3006.01 339.849 3006.01 339.849C3006.01 339.849 2997.02 291.388 3025 273.403C3051.11 256.618 3087.45 273.902 3087.45 273.902C3087.45 273.902 3115.92 210.453 3184.87 221.944C3250.53 232.888 3249.77 289.229 3249.77 289.229C3249.77 289.229 3320.83 247.201 3379.71 308.874C3426.31 357.682 3392.08 435.771 3340.74 435.771" fill="#ffffff" fill-rule="evenodd" opacity="1" stroke="none"/>
<path d="M3432.55 301.722C3401.67 301.722 3382.6 262.207 3403.25 239.134C3425.03 214.793 3455.02 236.289 3455.02 236.289C3455.02 236.289 3465.31 200.657 3495.99 199.59C3528.71 198.452 3533.54 234.298 3533.54 234.298C3533.54 234.298 3575.85 221.351 3589.06 254.262C3602.24 287.091 3566.48 304.229 3549.91 304.229" fill="#ffffff" fill-rule="evenodd" opacity="1" stroke="none"/>
<path d="M3729.12 390.456C3676.31 365.433 3672.83 311.553 3712.85 283.107C3749.63 256.967 3785.19 288.882 3785.19 288.882C3785.19 288.882 3794.59 233.891 3852.99 220.108C3907.71 207.198 3930.92 260.78 3930.92 260.78C3930.92 260.78 3961.69 239.775 4003.79 247.837C4045.9 255.899 4052.17 296.656 4052.17 296.656C4052.17 296.656 4104.54 292.993 4116.15 327.017C4129.01 364.73 4108.24 399.448 4065.93 398.075" fill="#ffffff" fill-rule="evenodd" opacity="1" stroke="none"/>
<path d="M2769.02 288.667C2737.22 286.067 2721.96 248.635 2745.28 224.647C2774.27 194.826 2810.11 226.198 2810.11 226.198C2810.11 226.198 2816.96 185.967 2852.86 187.766C2890.22 189.639 2900.32 223.502 2900.32 223.502C2900.32 223.502 2931.31 224.619 2938.85 246.116C2945.63 265.454 2932.66 293.02 2904.32 289.838" fill="#ffffff" fill-rule="evenodd" opacity="1" stroke="none"/>
<path d="M2769.02 288.667C2737.22 286.067 2721.96 248.635 2745.28 224.647C2774.27 194.826 2810.11 226.198 2810.11 226.198C2810.11 226.198 2816.96 185.967 2852.86 187.766C2890.22 189.639 2900.32 223.502 2900.32 223.502C2900.32 223.502 2931.31 224.619 2938.85 246.116C2945.63 265.454 2932.66 293.02 2904.32 289.838" fill="#ffffff" fill-rule="evenodd" opacity="1" stroke="none"/>
<path d="M4299.34 309.146C4267.54 306.546 4252.28 269.114 4275.6 245.126C4304.59 215.305 4340.43 246.677 4340.43 246.677C4340.43 246.677 4347.28 206.446 4383.18 208.245C4420.54 210.117 4430.64 243.981 4430.64 243.981C4430.64 243.981 4461.63 245.098 4469.17 266.595C4475.95 285.933 4462.98 313.499 4434.64 310.317" fill="#ffffff" fill-rule="evenodd" opacity="1" stroke="none"/>
<path d="M4320.73 537.296C4283.99 528.111 4263.49 505.052 4278.95 468.42C4293.88 433.024 4345.82 446.612 4345.82 446.612C4345.82 446.612 4344.9 415.352 4371.17 401.313C4409.91 380.606 4431.1 409.455 4431.1 409.455C4431.1 409.455 4455.21 361.875 4502.88 379.271C4566.68 402.553 4542.66 459.774 4542.66 459.774C4542.66 459.774 4583.03 463.592 4590.94 487.322C4598.85 511.051 4585.76 536.962 4548.37 540" fill="#ffffff" fill-rule="evenodd" opacity="1" stroke="none"/>
<path d="M4661.43 397.802C4612.9 406.528 4566.76 361.878 4593.55 308.272C4617.81 259.709 4672.64 285.618 4672.64 285.618C4672.64 285.618 4663.51 230.731 4705.69 209.692C4758.34 183.427 4787.29 232.789 4787.29 232.789C4787.29 232.789 4814.44 162.018 4884.63 201.366C4933.66 228.856 4904.43 287.129 4904.43 287.129C4904.43 287.129 4949.37 282.481 4969.68 319.662C4983.84 345.592 4964.42 389.811 4928.3 393.161" fill="#ffffff" fill-rule="evenodd" opacity="1" stroke="none"/>
</g>
</svg>
